<mxfile host="app.diagrams.net" modified="2020-05-29T14:28:11.984Z" agent="5.0 (Macintosh; Intel Mac OS X 10_15_4) AppleWebKit/537.36 (KHTML, like Gecko) Chrome/83.0.4103.61 Safari/537.36" etag="De_urs6961RLJQ4HR1sU" version="13.1.7" type="github">
  <diagram id="7iRBXb8xsk0rsANgX9GR" name="Page-1">
    <mxGraphModel dx="1426" dy="745" grid="1" gridSize="10" guides="1" tooltips="1" connect="1" arrows="1" fold="1" page="1" pageScale="1" pageWidth="827" pageHeight="1169" math="0" shadow="0">
      <root>
        <mxCell id="0" />
        <mxCell id="1" parent="0" />
        <mxCell id="2Laca3obdIziRuYlX9Ds-10" value="" style="edgeStyle=none;curved=1;orthogonalLoop=1;jettySize=auto;html=1;shadow=0;startArrow=none;startFill=0;" parent="1" edge="1">
          <mxGeometry relative="1" as="geometry">
            <mxPoint x="165" y="450" as="targetPoint" />
          </mxGeometry>
        </mxCell>
        <mxCell id="2Laca3obdIziRuYlX9Ds-8" value="" style="edgeStyle=orthogonalEdgeStyle;rounded=0;orthogonalLoop=1;jettySize=auto;html=1;" parent="1" edge="1">
          <mxGeometry relative="1" as="geometry">
            <mxPoint x="290" y="550" as="sourcePoint" />
          </mxGeometry>
        </mxCell>
        <mxCell id="2Laca3obdIziRuYlX9Ds-13" value="" style="rounded=0;whiteSpace=wrap;html=1;fillColor=#dae8fc;strokeColor=#6c8ebf;" parent="1" vertex="1">
          <mxGeometry x="70" y="330" width="210" height="300" as="geometry" />
        </mxCell>
        <mxCell id="2Laca3obdIziRuYlX9Ds-15" value="Origin Remote" style="rounded=0;whiteSpace=wrap;html=1;" parent="1" vertex="1">
          <mxGeometry x="115" y="360" width="120" height="60" as="geometry" />
        </mxCell>
        <mxCell id="2Laca3obdIziRuYlX9Ds-16" value="Branch" style="rounded=0;whiteSpace=wrap;html=1;" parent="1" vertex="1">
          <mxGeometry x="115" y="510" width="120" height="60" as="geometry" />
        </mxCell>
        <mxCell id="2Laca3obdIziRuYlX9Ds-17" value="Pull" style="endArrow=classic;html=1;shadow=0;exitX=0.25;exitY=1;exitDx=0;exitDy=0;entryX=0.25;entryY=0;entryDx=0;entryDy=0;" parent="1" source="2Laca3obdIziRuYlX9Ds-15" target="2Laca3obdIziRuYlX9Ds-16" edge="1">
          <mxGeometry width="50" height="50" relative="1" as="geometry">
            <mxPoint x="10" y="500" as="sourcePoint" />
            <mxPoint x="60" y="450" as="targetPoint" />
          </mxGeometry>
        </mxCell>
        <mxCell id="2Laca3obdIziRuYlX9Ds-18" value="Push" style="endArrow=classic;html=1;shadow=0;entryX=0.75;entryY=1;entryDx=0;entryDy=0;exitX=0.75;exitY=0;exitDx=0;exitDy=0;" parent="1" source="2Laca3obdIziRuYlX9Ds-16" target="2Laca3obdIziRuYlX9Ds-15" edge="1">
          <mxGeometry width="50" height="50" relative="1" as="geometry">
            <mxPoint x="190" y="500" as="sourcePoint" />
            <mxPoint x="240" y="450" as="targetPoint" />
          </mxGeometry>
        </mxCell>
        <mxCell id="2Laca3obdIziRuYlX9Ds-19" value="Git" style="text;html=1;resizable=0;autosize=1;align=center;verticalAlign=middle;points=[];fillColor=none;strokeColor=none;rounded=0;fontStyle=1;fontSize=14;" parent="1" vertex="1">
          <mxGeometry x="160" y="600" width="30" height="20" as="geometry" />
        </mxCell>
      </root>
    </mxGraphModel>
  </diagram>
</mxfile>
